<svg xmlns="http://www.w3.org/2000/svg" width="24" height="24" viewBox="0 0 24 24" fill="none">
  <path d="M8 5.4 5.8 3.5M16 5.4l2.2-1.9" stroke="#14532D" stroke-width="1.5" stroke-linecap="round"/>
  <path d="M6.6 10.4 4.4 8.8M17.4 10.4l2.2-1.6M6.4 14.5H3.8M17.6 14.5h2.6M7.5 18.1l-2 1.5M16.5 18.1l2 1.5" stroke="#166534" stroke-width="1.6" stroke-linecap="round"/>
  <rect x="7" y="5" width="10" height="5.8" rx="2.9" fill="#84CC16"/>
  <rect x="5.8" y="8.8" width="12.4" height="10.2" rx="5.1" fill="#65A30D"/>
  <path d="M6.7 12.1c1.7.9 3.5 1.3 5.3 1.3s3.6-.4 5.3-1.3" stroke="#A3E635" stroke-width="1.4" stroke-linecap="round"/>
  <path d="M7.3 15.2c1.5.8 3.1 1.2 4.7 1.2s3.2-.4 4.7-1.2" stroke="#A3E635" stroke-width="1.4" stroke-linecap="round"/>
  <circle cx="10" cy="7.7" r="0.95" fill="#111827"/>
  <circle cx="14" cy="7.7" r="0.95" fill="#111827"/>
  <path d="M10.4 10.2c.9.6 2.3.6 3.2 0" stroke="#365314" stroke-width="1.2" stroke-linecap="round"/>
</svg>
